<svg width="9" height="9" viewBox="0 0 9 9" fill="none" xmlns="http://www.w3.org/2000/svg">
<g clip-path="url(#clip0_198_2715)">
<path d="M3.85863 7.7762C3.85862 7.72546 3.84746 7.67534 3.82592 7.6294C3.80439 7.58346 3.77301 7.54281 3.73402 7.51035C3.69502 7.47788 3.64937 7.45439 3.60028 7.44154C3.5512 7.42868 3.49989 7.42678 3.44999 7.43597C2.99708 7.51909 2.42525 7.53159 2.27321 7.10453C2.14063 6.77378 1.92103 6.48507 1.63769 6.26901C1.61747 6.25801 1.5982 6.24535 1.58008 6.23116C1.55528 6.16575 1.51124 6.10939 1.45375 6.06952C1.39627 6.02965 1.32805 6.00814 1.2581 6.00783H1.25641C1.16493 6.0078 1.07717 6.04401 1.01233 6.10853C0.947488 6.17306 0.91085 6.26064 0.910436 6.35212C0.909083 6.63423 1.19102 6.81499 1.3054 6.87615C1.44027 7.01166 1.54867 7.17116 1.62502 7.34645C1.75104 7.70053 2.11728 8.23773 3.17007 8.16848C3.17041 8.18064 3.17074 8.19213 3.17091 8.2026L3.17243 8.29518C3.17243 8.38694 3.20888 8.47494 3.27376 8.53982C3.33865 8.6047 3.42664 8.64115 3.5184 8.64115C3.61016 8.64115 3.69816 8.6047 3.76304 8.53982C3.82792 8.47494 3.86437 8.38694 3.86437 8.29518L3.86269 8.18504C3.861 8.11947 3.85863 8.02453 3.85863 7.7762ZM7.54912 2.54302C7.5601 2.49978 7.57091 2.4518 7.58037 2.39774C7.63633 2.01219 7.58755 1.61868 7.43914 1.25846C7.42042 1.21149 7.39165 1.1692 7.35485 1.13453C7.31805 1.09986 7.27411 1.07366 7.22612 1.05777C7.10295 1.01621 6.64821 0.934446 5.77855 1.49023C5.05565 1.32012 4.30313 1.32012 3.58024 1.49023C2.71412 0.942586 2.26172 1.0169 2.13975 1.05609C2.09058 1.07134 2.04544 1.0974 2.00764 1.13237C1.96985 1.16733 1.94035 1.2103 1.92132 1.25814C1.76989 1.62528 1.72164 2.02681 1.78178 2.41938C1.79023 2.46364 1.79935 2.50452 1.80882 2.54202C1.5222 2.92378 1.36954 3.38943 1.37449 3.86678C1.37356 3.97328 1.37846 4.07976 1.38919 4.18572C1.50474 5.77807 2.54266 6.25615 3.26585 6.42036C3.25082 6.4636 3.23713 6.50989 3.22497 6.55888C3.20329 6.6479 3.2178 6.74188 3.26531 6.82022C3.31282 6.89856 3.38946 6.95485 3.47842 6.97677C3.56738 6.99868 3.6614 6.98443 3.73986 6.93713C3.81832 6.88982 3.87483 6.81333 3.89698 6.72443C3.91899 6.60916 3.97542 6.50326 4.05882 6.42069C4.10925 6.37654 4.14576 6.31869 4.16391 6.25418C4.18206 6.18966 4.18107 6.12125 4.16106 6.05729C4.14105 5.99332 4.10288 5.93655 4.0512 5.89388C3.99952 5.85121 3.93655 5.82447 3.86995 5.81693C2.67493 5.68043 2.15614 5.19357 2.07809 4.12221C2.06945 4.03735 2.06556 3.95208 2.06644 3.86679C2.06089 3.52658 2.17328 3.19493 2.38453 2.9282C2.40576 2.90039 2.42837 2.87367 2.45227 2.84813C2.49463 2.80073 2.52311 2.74258 2.53459 2.68005C2.54606 2.61753 2.54009 2.55306 2.51732 2.49371C2.49398 2.43127 2.47601 2.36695 2.4636 2.30146C2.43541 2.11523 2.44466 1.92525 2.49079 1.74263C2.79149 1.82756 3.07449 1.9658 3.32631 2.15077C3.36796 2.17851 3.41508 2.19697 3.46449 2.2049C3.51389 2.21282 3.56442 2.21004 3.61266 2.19672C4.3119 2.00696 5.0491 2.00708 5.74829 2.19707C5.79678 2.21037 5.84758 2.213 5.89719 2.20477C5.9468 2.19655 5.99403 2.17767 6.03564 2.14943C6.28629 1.96369 6.5681 1.82422 6.8678 1.73758C6.91373 1.9158 6.92401 2.10135 6.89804 2.28356C6.88551 2.35536 6.86593 2.42575 6.83959 2.49371C6.81682 2.55306 6.81084 2.61754 6.82232 2.68006C6.83379 2.74258 6.86227 2.80073 6.90463 2.84813C6.93132 2.8782 6.95801 2.91064 6.982 2.94104C7.19176 3.20326 7.30225 3.53109 7.29403 3.86678C7.29465 3.9566 7.29031 4.04638 7.28102 4.13572C7.20483 5.19289 6.68402 5.6801 5.48342 5.81693C5.4168 5.82451 5.35383 5.85129 5.30215 5.89401C5.25047 5.93672 5.21232 5.99353 5.19233 6.05753C5.17234 6.12152 5.17138 6.18995 5.18955 6.25448C5.20773 6.31901 5.24427 6.37688 5.29472 6.42103C5.38074 6.5058 5.43729 6.61594 5.45605 6.73524C5.47943 6.82786 5.49017 6.92321 5.48798 7.01871V7.82621C5.48459 8.05021 5.48459 8.21812 5.48459 8.29516C5.48459 8.38692 5.52104 8.47491 5.58593 8.5398C5.65081 8.60468 5.73881 8.64113 5.83057 8.64113C5.92232 8.64113 6.01032 8.60468 6.0752 8.5398C6.14009 8.47491 6.17654 8.38692 6.17654 8.29516C6.17654 8.22015 6.17654 8.05561 6.17992 7.83161V7.01871C6.1827 6.86573 6.16469 6.71308 6.12637 6.56496C6.11541 6.51633 6.10199 6.4683 6.08616 6.42103C6.61247 6.3336 7.09068 6.06224 7.43567 5.65526C7.78065 5.24828 7.97003 4.73209 7.97009 4.19857C7.98149 4.08835 7.98679 3.97758 7.98597 3.86678C7.99365 3.38891 7.83971 2.92246 7.54911 2.54303L7.54912 2.54302Z" fill="#F1F1F1" fill-opacity="0.7"/>
</g>
<defs>
<clipPath id="clip0_198_2715">
<rect width="8.30334" height="8.30334" fill="white" transform="translate(0.374603 0.682709)"/>
</clipPath>
</defs>
</svg>
