<svg width="9" height="9" viewBox="0 0 9 9" fill="none" xmlns="http://www.w3.org/2000/svg">
<g clip-path="url(#clip0_198_2713)">
<path d="M4.15183 3.10456C3.8097 3.10456 3.47525 3.20601 3.19077 3.39609C2.9063 3.58617 2.68458 3.85634 2.55365 4.17243C2.42272 4.48852 2.38846 4.83634 2.45521 5.1719C2.52196 5.50746 2.68671 5.81569 2.92863 6.05761C3.17056 6.29954 3.47879 6.46429 3.81435 6.53104C4.14991 6.59779 4.49773 6.56353 4.81382 6.4326C5.12991 6.30167 5.40008 6.07995 5.59016 5.79548C5.78024 5.511 5.88169 5.17655 5.88169 4.83442C5.88169 4.37563 5.69944 3.93563 5.37503 3.61122C5.05062 3.28681 4.61062 3.10456 4.15183 3.10456ZM4.15183 5.87233C3.94655 5.87233 3.74588 5.81146 3.5752 5.69741C3.40451 5.58337 3.27148 5.42127 3.19292 5.23161C3.11436 5.04196 3.09381 4.83327 3.13386 4.63193C3.17391 4.43059 3.27276 4.24565 3.41791 4.1005C3.56307 3.95534 3.74801 3.85649 3.94934 3.81644C4.15068 3.7764 4.35937 3.79695 4.54902 3.87551C4.73868 3.95406 4.90078 4.0871 5.01483 4.25778C5.12887 4.42847 5.18975 4.62914 5.18975 4.83442C5.18975 5.10969 5.0804 5.37369 4.88575 5.56834C4.6911 5.76298 4.4271 5.87233 4.15183 5.87233ZM5.88169 2.75858C5.81327 2.75858 5.74638 2.77887 5.68948 2.81689C5.63259 2.85491 5.58824 2.90894 5.56206 2.97216C5.53587 3.03538 5.52902 3.10494 5.54237 3.17205C5.55572 3.23916 5.58867 3.30081 5.63705 3.3492C5.68544 3.39758 5.74708 3.43053 5.8142 3.44388C5.88131 3.45723 5.95087 3.45038 6.01409 3.42419C6.07731 3.39801 6.13134 3.35366 6.16936 3.29677C6.20737 3.23987 6.22766 3.17298 6.22766 3.10456C6.22766 3.0128 6.19121 2.9248 6.12633 2.85992C6.06145 2.79503 5.97345 2.75858 5.88169 2.75858ZM7.5908 3.53356C7.58506 3.2379 7.5289 2.94539 7.42473 2.66863C7.32813 2.41679 7.17964 2.18807 6.98891 1.99734C6.79818 1.80661 6.56946 1.65812 6.31762 1.56152C6.04086 1.45735 5.74835 1.40119 5.45269 1.39545C5.11709 1.37469 5.00638 1.37469 4.15183 1.37469C3.29728 1.37469 3.18657 1.37469 2.85098 1.39545C2.55532 1.40119 2.2628 1.45735 1.98604 1.56152C1.7342 1.65812 1.50549 1.80661 1.31475 1.99734C1.12402 2.18807 0.975534 2.41679 0.878933 2.66863C0.774761 2.94539 0.718598 3.2379 0.712866 3.53356C0.692108 3.87261 0.692108 3.98333 0.692108 4.83442C0.692108 5.68551 0.692108 5.79622 0.712866 6.13527C0.718598 6.43093 0.774761 6.72344 0.878933 7.0002C0.975534 7.25205 1.12402 7.48076 1.31475 7.67149C1.50549 7.86223 1.7342 8.01071 1.98604 8.10732C2.2628 8.21149 2.55532 8.26765 2.85098 8.27338C3.19695 8.27338 3.29728 8.29414 4.15183 8.29414C5.00638 8.29414 5.11709 8.29414 5.45269 8.27338C5.74835 8.26765 6.04086 8.21149 6.31762 8.10732C6.56946 8.01071 6.79818 7.86223 6.98891 7.67149C7.17964 7.48076 7.32813 7.25205 7.42473 7.0002C7.5289 6.72344 7.58506 6.43093 7.5908 6.13527C7.5908 5.7893 7.61155 5.68551 7.61155 4.83442C7.61155 3.98333 7.61155 3.87261 7.5908 3.53356ZM6.89885 6.10414C6.89279 6.32369 6.85191 6.5409 6.77776 6.74764C6.71645 6.91106 6.61954 7.05879 6.49406 7.18011C6.37347 7.30564 6.22545 7.40156 6.0616 7.46035C5.85436 7.53753 5.63571 7.57963 5.41463 7.5849C5.08942 7.5849 4.98908 7.6022 4.14837 7.6022C3.30766 7.6022 3.21079 7.6022 2.88557 7.6022C2.66485 7.5965 2.44645 7.55562 2.2386 7.48111C2.07519 7.4198 1.92746 7.32289 1.80614 7.19741C1.6806 7.07681 1.58469 6.92879 1.5259 6.76494C1.44903 6.55882 1.40694 6.34136 1.40135 6.12143C1.40135 5.77546 1.40135 5.68897 1.40135 4.85172C1.40135 4.01446 1.40135 3.91413 1.40135 3.582C1.40731 3.36099 1.44939 3.14245 1.5259 2.93503C1.5856 2.77264 1.68143 2.62595 1.80614 2.50602C1.92674 2.38049 2.07475 2.28457 2.2386 2.22579C2.44584 2.1486 2.66449 2.1065 2.88557 2.10124C3.21079 2.06664 3.31112 2.06664 4.15183 2.06664C4.99254 2.06664 5.09288 2.06664 5.41809 2.06664C5.64025 2.07229 5.85998 2.11436 6.06852 2.19119C6.23091 2.25089 6.3776 2.34672 6.49752 2.47143C6.62306 2.59202 6.71897 2.74004 6.77776 2.90389C6.86245 3.11444 6.91043 3.33794 6.91961 3.5647C6.91961 3.91067 6.93691 3.99716 6.93691 4.83442C6.93691 5.67167 6.91961 5.772 6.91961 6.10414H6.89885Z" fill="#F1F1F1" fill-opacity="0.7"/>
</g>
<defs>
<clipPath id="clip0_198_2713">
<rect width="8.30334" height="8.30334" fill="white" transform="translate(6.10352e-05 0.682739)"/>
</clipPath>
</defs>
</svg>
