<svg width="9" height="8" viewBox="0 0 9 8" fill="none" xmlns="http://www.w3.org/2000/svg">
<path d="M6.17798 2.79612C5.86825 2.79598 5.56331 2.8726 5.29041 3.01911C5.26551 2.95352 5.22124 2.89706 5.16349 2.85723C5.10574 2.8174 5.03723 2.79609 4.96708 2.79612H3.58319C3.53775 2.79609 3.49275 2.80502 3.45076 2.8224C3.40877 2.83978 3.37062 2.86526 3.33849 2.89739C3.30636 2.92952 3.28088 2.96767 3.2635 3.00966C3.24612 3.05165 3.23719 3.09665 3.23722 3.14209V7.29376C3.23719 7.3392 3.24612 7.3842 3.2635 7.42618C3.28088 7.46817 3.30636 7.50632 3.33849 7.53845C3.37062 7.57059 3.40877 7.59607 3.45076 7.61345C3.49275 7.63082 3.53775 7.63975 3.58319 7.63973H4.96708C5.01252 7.63975 5.05752 7.63082 5.09951 7.61345C5.14149 7.59607 5.17964 7.57059 5.21178 7.53845C5.24391 7.50632 5.26939 7.46817 5.28677 7.42618C5.30415 7.3842 5.31308 7.3392 5.31305 7.29376V5.39091C5.31305 5.29915 5.3495 5.21115 5.41438 5.14627C5.47927 5.08139 5.56726 5.04494 5.65902 5.04494C5.75078 5.04494 5.83878 5.08139 5.90366 5.14627C5.96854 5.21115 6.00499 5.29915 6.00499 5.39091V7.29376C6.00497 7.3392 6.0139 7.3842 6.03128 7.42618C6.04865 7.46817 6.07414 7.50632 6.10627 7.53845C6.1384 7.57059 6.17655 7.59607 6.21854 7.61345C6.26053 7.63082 6.30553 7.63975 6.35097 7.63973H7.73486C7.7803 7.63975 7.8253 7.63082 7.86729 7.61345C7.90927 7.59607 7.94742 7.57059 7.97955 7.53845C8.01169 7.50632 8.03717 7.46817 8.05455 7.42618C8.07192 7.3842 8.08085 7.3392 8.08083 7.29376V4.69896C8.0802 4.19449 7.87952 3.71086 7.5228 3.35414C7.16609 2.99742 6.68245 2.79674 6.17798 2.79612ZM7.38888 6.94778H6.69694V5.39091C6.69694 5.11564 6.58759 4.85164 6.39294 4.65699C6.19829 4.46234 5.93429 4.35299 5.65902 4.35299C5.38375 4.35299 5.11975 4.46234 4.9251 4.65699C4.73046 4.85164 4.62111 5.11564 4.62111 5.39091V6.94778H3.92916V3.48806H4.62111V3.73132C4.62115 3.80301 4.64345 3.87291 4.68492 3.93138C4.72639 3.98985 4.785 4.034 4.85264 4.05774C4.92028 4.08147 4.99363 4.08362 5.06254 4.06388C5.13146 4.04415 5.19254 4.0035 5.23737 3.94756C5.39263 3.75037 5.6056 3.60658 5.84653 3.53628C6.08747 3.46598 6.34434 3.47267 6.58129 3.55542C6.81824 3.63818 7.02343 3.79286 7.16821 3.99787C7.31299 4.20288 7.39014 4.44799 7.38888 4.69896V6.94778ZM2.54527 2.79612H1.16138C1.11594 2.79609 1.07094 2.80502 1.02895 2.8224C0.986967 2.83978 0.948817 2.86526 0.916686 2.89739C0.884554 2.92952 0.859071 2.96767 0.841693 3.00966C0.824316 3.05165 0.815385 3.09665 0.815411 3.14209V7.29376C0.815384 7.3392 0.824315 7.3842 0.841692 7.42618C0.85907 7.46817 0.884553 7.50632 0.916685 7.53845C0.948816 7.57059 0.986967 7.59607 1.02895 7.61345C1.07094 7.63082 1.11594 7.63975 1.16138 7.63973H2.54527C2.59071 7.63975 2.63571 7.63082 2.6777 7.61345C2.71969 7.59607 2.75784 7.57059 2.78997 7.53845C2.8221 7.50632 2.84758 7.46817 2.86496 7.42618C2.88234 7.3842 2.89127 7.3392 2.89124 7.29376V3.14209C2.89127 3.09665 2.88234 3.05165 2.86496 3.00966C2.84758 2.96767 2.8221 2.92952 2.78997 2.89739C2.75784 2.86526 2.71969 2.83978 2.6777 2.8224C2.63571 2.80502 2.59071 2.79609 2.54527 2.79612ZM2.1993 6.94778H1.50736V3.48806H2.1993V6.94778ZM1.8584 0.216201C1.70698 0.207138 1.55531 0.228967 1.4126 0.28036C1.26989 0.331753 1.13913 0.411637 1.02826 0.515153C0.91739 0.61867 0.828736 0.743655 0.767687 0.882509C0.706638 1.02136 0.674469 1.17118 0.673139 1.32286C0.671808 1.47454 0.701342 1.6249 0.759946 1.7648C0.81855 1.90471 0.904997 2.03123 1.01403 2.13667C1.12307 2.24212 1.25241 2.32428 1.3942 2.37817C1.53598 2.43206 1.68725 2.45655 1.8388 2.45014H1.84859C2.00041 2.45916 2.15246 2.43713 2.29547 2.3854C2.43848 2.33366 2.56944 2.25331 2.68035 2.14926C2.79125 2.0452 2.87978 1.91962 2.94051 1.7802C3.00125 1.64077 3.03292 1.49043 3.03358 1.33835C3.03425 1.18627 3.0039 1.03565 2.94439 0.895702C2.88488 0.755749 2.79746 0.6294 2.68747 0.524375C2.57748 0.419349 2.44723 0.337854 2.30468 0.284867C2.16213 0.231881 2.01028 0.208516 1.85839 0.216201H1.8584ZM1.8486 1.7582H1.8388C1.77897 1.76547 1.71827 1.75985 1.66079 1.74174C1.60331 1.72363 1.55036 1.69344 1.5055 1.65318C1.46064 1.61293 1.42491 1.56356 1.4007 1.50836C1.37648 1.45317 1.36435 1.39344 1.36512 1.33318C1.36512 1.07505 1.55871 0.908142 1.8584 0.908142C1.91884 0.900085 1.9803 0.905074 2.03865 0.922772C2.097 0.94047 2.15088 0.970466 2.19667 1.01074C2.24245 1.05102 2.27907 1.10063 2.30406 1.15625C2.32905 1.21187 2.34183 1.2722 2.34154 1.33318C2.34154 1.5913 2.14794 1.7582 1.8486 1.7582Z" fill="#F1F1F1" fill-opacity="0.7"/>
</svg>
